<svg xmlns="http://www.w3.org/2000/svg" xmlns:xlink="http://www.w3.org/1999/xlink" style="enable-background:new 0 0 1100 500" x="0" y="0" version="1.1" viewBox="0 0 1100 500" xml:space="preserve"><style type="text/css">.st0,.st1{stroke:#ecbb13;stroke-miterlimit:10}.st0{clip-path:url(#XMLID_52_);fill:#ecbb13}.st1{fill:none;stroke-width:20}.st2{fill:#fff;stroke:#fff;stroke-width:10}.st2,.st3,.st4{stroke-miterlimit:10}.st3{display:none;stroke:#000;stroke-width:10}.st4{fill:none;stroke:#fff;stroke-width:28;clip-path:url(#XMLID_57_)}.st6{display:none}.st7,.st8{clip-path:url(#XMLID_57_);fill:none}.st7{display:none;stroke:#c1272d;stroke-width:4;stroke-miterlimit:10}.st8{stroke:#ecbb13;stroke-width:28}.st10,.st8,.st9{stroke-miterlimit:10}.st9{fill:none;stroke:#fff;stroke-width:28}.st10{display:none;stroke:#000;stroke-width:20}.st11{display:inline}.st12{fill:none;stroke:red;stroke-miterlimit:1}.st13{fill:red}.st14{opacity:.49}.st15{fill:#fff}.st16,.st17{display:inline}.st16{fill:none;stroke:#999;stroke-miterlimit:1}.st17{fill:red}.st18{font-family:&apos;Roboto-Regular&apos;}.st19{font-size:10.0393105px}.st20{font-size:12px}.st21{display:inline;fill:none;stroke:red;stroke-miterlimit:1}.st22{font-size:14.7928896px}</style><g id="Bolinhas"><g id="Layer_11"><defs><rect id="XMLID_14_" width="155.333" height="40.807" x="19.333" y="328.193"/></defs><clipPath id="XMLID_52_"><use style="overflow:visible" xlink:href="#XMLID_14_"/></clipPath><polygon id="XMLID_2_" points="104.5 353.908 76.711 326.118 48.921 298.329 76.711 270.54 104.5 242.75 132.289 270.54 160.079 298.329 132.289 326.118" class="st0"/></g><circle id="XMLID_51_" cx="180.161" cy="230.329" r="30" class="st1"/><line id="XMLID_50_" x1="158.865" x2="128.182" y1="208.416" y2="177.734" class="st1"/><circle id="XMLID_48_" cx="104.161" cy="159.329" r="30" class="st1"/><circle id="XMLID_46_" cx="104.5" cy="298.329" r="30" class="st1"/><line id="XMLID_44_" x1="158.556" x2="129.872" y1="252.929" y2="281.614" class="st1"/><circle id="XMLID_41_" cx="104.836" cy="298.664" r="6.336" class="st2"/><circle id="XMLID_1_" cx="989.836" cy="277.664" r="6.336" class="st3"/><circle id="XMLID_29_" cx="850.836" cy="344.664" r="6.336" class="st2"/></g><g id="k"><defs><rect id="XMLID_5_" width="1010.949" height="153.426" x="60.113" y="200.987"/></defs><clipPath id="XMLID_57_"><use style="overflow:visible" xlink:href="#XMLID_5_"/></clipPath><line id="k2_1_" x1="548.181" x2="434.156" y1="163.414" y2="284.485" class="st4"/><line id="k1_1_" x1="541.656" x2="440.957" y1="386.034" y2="272.352" class="st4"/><line id="a1_1_" x1="391" x2="391" y1="201" y2="354" class="st4"/><ellipse id="a2_3_" cx="753.192" cy="277.667" class="st4" rx="60" ry="62.5"/><line id="h3" x1="664" x2="548" y1="273" y2="273" class="st4"/><line id="h2" x1="651" x2="651" y1="171" y2="354" class="st4"/><line id="h1" x1="561" x2="561" y1="167" y2="354" class="st4"/><ellipse id="a2_1_" cx="327.192" cy="277.5" class="st4" rx="60" ry="62.5"/><rect id="XMLID_23_" width="28.5" height="147.625" x="362.5" y="204.375" class="st7"/><line id="k1_2_" x1="818.089" x2="786.957" y1="364.498" y2="329.352" class="st4"/><line id="a1_2_" x1="888" x2="888" y1="246" y2="354" class="st8"/><ellipse id="a2_2_" cx="990.192" cy="277.667" class="st8" rx="60" ry="62.5"/><line id="a1_3_" x1="888" x2="888" y1="186" y2="231" class="st8"/></g><g id="Letras"><line id="k3_1_" x1="433" x2="433" y1="67" y2="354" class="st9"/><circle id="q-inside_1_" cx="990.335" cy="277.787" r="20.784" class="st10"/></g><g id="Guidelines" class="st6"><g id="XMLID_49_" class="st11"><g id="XMLID_184_"><line id="XMLID_190_" x1="639" x2="663" y1="37.5" y2="37.5" class="st12"/><g id="XMLID_188_"><polygon id="XMLID_189_" points="642.398 41.533 643.08 40.8 639.468 37.444 643.08 34.086 642.398 33.354 638 37.444" class="st13"/></g><g id="XMLID_186_"><polygon id="XMLID_187_" points="659.477 41.533 658.795 40.8 662.407 37.444 658.795 34.086 659.477 33.354 663.875 37.444" class="st13"/></g></g></g><g id="XMLID_47_" class="st11"><g id="XMLID_172_"><line id="XMLID_178_" x1="549" x2="573" y1="37.5" y2="37.5" class="st12"/><g id="XMLID_176_"><polygon id="XMLID_177_" points="552.398 41.533 553.08 40.8 549.468 37.444 553.08 34.086 552.398 33.354 548 37.444" class="st13"/></g><g id="XMLID_173_"><polygon id="XMLID_175_" points="569.602 41.533 568.92 40.8 572.532 37.444 568.92 34.086 569.602 33.354 574 37.444" class="st13"/></g></g></g><g id="XMLID_371_" class="st11"><g id="XMLID_165_"><line id="XMLID_170_" x1="421" x2="445" y1="37.5" y2="37.5" class="st12"/><g id="XMLID_168_"><polygon id="XMLID_169_" points="424.523 41.533 425.205 40.8 421.593 37.444 425.205 34.086 424.523 33.354 420.125 37.444" class="st13"/></g><g id="XMLID_166_"><polygon id="XMLID_167_" points="441.477 41.533 440.795 40.8 444.407 37.444 440.795 34.086 441.477 33.354 445.875 37.444" class="st13"/></g></g></g><g id="XMLID_355_" class="st11"><g id="XMLID_196_" class="st14"><path id="XMLID_6_" d="M348.25,65.1128616c0.0053406,0,0.0055237-0.7257233,0-0.7257233 C348.2446594,64.3871384,348.2444763,65.1128616,348.25,65.1128616L348.25,65.1128616z" class="st15"/></g></g><line id="XMLID_354_" x1="404.5" x2="404.5" y1="201" y2="35" class="st16"/><line id="XMLID_353_" x1="377.5" x2="377.5" y1="201" y2="35" class="st16"/><line id="XMLID_352_" x1="419.5" x2="419.5" y1="67" y2="35" class="st16"/><line id="XMLID_351_" x1="446.5" x2="446.5" y1="67" y2="35" class="st16"/><line id="XMLID_30_" x1="547.5" x2="547.5" y1="201" y2="35" class="st16"/><line id="XMLID_31_" x1="574.5" x2="574.5" y1="201" y2="35" class="st16"/><line id="XMLID_32_" x1="637.5" x2="637.5" y1="201" y2="35" class="st16"/><line id="XMLID_33_" x1="664.5" x2="664.5" y1="201" y2="35" class="st16"/><line id="XMLID_148_" x1="874.5" x2="874.5" y1="201" y2="35" class="st16"/><line id="XMLID_142_" x1="901.5" x2="901.5" y1="201" y2="35" class="st16"/><text id="XMLID_350_" class="st17 st18 st19" transform="matrix(1.1953 0 0 1 387.4643555 34.514679)">x</text><text id="XMLID_348_" class="st17 st18 st19" transform="matrix(1.1953 0 0 1 430 34.514679)">x</text><text id="XMLID_39_" class="st17 st18 st19" transform="matrix(1.1953 0 0 1 558 34.514679)">x</text><text id="XMLID_40_" class="st17 st18 st19" transform="matrix(1.1953 0 0 1 647.6669922 34.514679)">x</text><text id="XMLID_43_" class="st17 st18 st19" transform="matrix(1.1953 0 0 1 884.4638672 34.514679)">x</text><line id="XMLID_259_" x1="274" x2="1086" y1="200.5" y2="200.5" class="st16"/><line id="XMLID_42_" x1="18" x2="1086" y1="354.5" y2="354.5" class="st16"/><text id="XMLID_38_" class="st17 st18 st20" transform="matrix(1 0 0 1 1073 281)">y</text><g id="XMLID_35_" class="st11"><g id="XMLID_150_"><line id="XMLID_155_" x1="1067.5" x2="1067.5" y1="202" y2="353" class="st12"/><g id="XMLID_153_"><polygon id="XMLID_154_" points="1063.41 205.398 1064.143 206.08 1067.499 202.468 1070.856 206.08 1071.589 205.398 1067.499 201" class="st13"/></g><g id="XMLID_151_"><polygon id="XMLID_152_" points="1063.41 349.602 1064.143 348.92 1067.499 352.532 1070.856 348.92 1071.589 349.602 1067.499 354" class="st13"/></g></g></g><g id="XMLID_338_" class="st11"><g id="XMLID_121_"><line id="XMLID_126_" x1="290.728" x2="304.312" y1="301.492" y2="292.921" class="st12"/><g id="XMLID_122_"><polygon id="XMLID_123_" points="295.713 303.183 295.899 302.2 291.054 301.288 292.316 296.521 291.349 296.266 289.812 302.072" class="st13"/></g></g></g><g id="XMLID_332_" class="st11"><g id="XMLID_116_"><line id="XMLID_119_" x1="231.033" x2="265.048" y1="338.348" y2="316.885" class="st12"/><g id="XMLID_117_"><polygon id="XMLID_118_" points="264.429 322.112 263.461 321.856 264.724 317.09 259.878 316.178 260.064 315.195 265.966 316.307" class="st13"/></g></g></g><text id="XMLID_331_" class="st17 st18 st20" transform="matrix(0.85948 -0.51116 0.51116 0.85948 229.4640503 333.2091064)">x</text><line id="XMLID_270_" x1="418.5" x2="418.5" y1="354" y2="412" class="st16"/><line id="XMLID_269_" x1="405.5" x2="405.5" y1="354" y2="412" class="st16"/><text id="XMLID_268_" class="st17 st18 st20" transform="matrix(1 0 0 1 405.5001831 425.5002441)">x/2</text><g id="XMLID_260_" class="st11"><g id="XMLID_180_"><line id="XMLID_183_" x1="391" x2="404" y1="407.5" y2="407.5" class="st12"/><g id="XMLID_181_"><polygon id="XMLID_182_" points="400.602 411.59 399.92 410.857 403.532 407.501 399.92 404.144 400.602 403.411 405 407.501" class="st13"/></g></g></g><g id="XMLID_243_" class="st11"><g id="XMLID_138_"><line id="XMLID_160_" x1="433" x2="420" y1="407.5" y2="407.5" class="st12"/><g id="XMLID_139_"><polygon id="XMLID_140_" points="423.398 403.41 424.08 404.143 420.468 407.499 424.08 410.856 423.398 411.589 419 407.499" class="st13"/></g></g></g><line id="XMLID_242_" x1="405" x2="419" y1="407.5" y2="407.5" class="st21"/><line id="XMLID_195_" x1="546.5" x2="546.5" y1="201" y2="409" class="st16"/><line id="XMLID_241_" x1="533.5" x2="533.5" y1="201" y2="409" class="st16"/><g id="XMLID_229_" class="st11"><g id="XMLID_133_"><line id="XMLID_136_" x1="519" x2="532" y1="404.5" y2="404.5" class="st12"/><g id="XMLID_134_"><polygon id="XMLID_135_" points="528.602 408.59 527.92 407.857 531.532 404.501 527.92 401.144 528.602 400.411 533 404.501" class="st13"/></g></g></g><g id="XMLID_174_" class="st11"><g id="XMLID_128_"><line id="XMLID_131_" x1="561" x2="548" y1="404.5" y2="404.5" class="st12"/><g id="XMLID_129_"><polygon id="XMLID_130_" points="551.398 400.41 552.08 401.143 548.468 404.499 552.08 407.856 551.398 408.589 547 404.499" class="st13"/></g></g></g><line id="XMLID_228_" x1="533" x2="547" y1="404.5" y2="404.5" class="st21"/><g id="XMLID_185_" class="st11"><g id="XMLID_144_"><line id="XMLID_163_" x1="379" x2="403" y1="37.5" y2="37.5" class="st12"/><g id="XMLID_147_"><polygon id="XMLID_162_" points="382.523 41.533 383.205 40.8 379.593 37.444 383.205 34.086 382.523 33.354 378.125 37.444" class="st13"/></g><g id="XMLID_145_"><polygon id="XMLID_146_" points="399.477 41.533 398.795 40.8 402.407 37.444 398.795 34.086 399.477 33.354 403.875 37.444" class="st13"/></g></g></g><text id="XMLID_3_" class="st17 st18 st20" transform="matrix(1 0 0 1 532.0001831 421.5002441)">x/2</text><line id="XMLID_94_" x1="678.5" x2="678.5" y1="201" y2="411" class="st16"/><line id="XMLID_45_" x1="665.5" x2="665.5" y1="201" y2="411" class="st16"/><g id="XMLID_27_" class="st11"><g id="XMLID_106_"><line id="XMLID_114_" x1="651" x2="664" y1="406.5" y2="406.5" class="st12"/><g id="XMLID_108_"><polygon id="XMLID_113_" points="660.602 410.534 659.92 409.802 663.532 406.445 659.92 403.088 660.602 402.356 665 406.445" class="st13"/></g></g></g><g id="XMLID_37_" class="st11"><g id="XMLID_101_"><line id="XMLID_104_" x1="693" x2="680" y1="406.5" y2="406.5" class="st12"/><g id="XMLID_102_"><polygon id="XMLID_103_" points="683.398 402.355 684.08 403.087 680.468 406.443 684.08 409.801 683.398 410.533 679 406.443" class="st13"/></g></g></g><line id="XMLID_34_" x1="664" x2="679" y1="406.5" y2="406.5" class="st21"/><text id="XMLID_26_" class="st17 st18 st22" transform="matrix(0.8112 0 0 1 663 423.5097656)">x/2</text><g id="XMLID_9_" class="st11"><g id="XMLID_68_"><line id="XMLID_125_" x1="876" x2="900" y1="37.5" y2="37.5" class="st12"/><g id="XMLID_107_"><polygon id="XMLID_124_" points="879.398 41.533 880.08 40.8 876.468 37.444 880.08 34.086 879.398 33.354 875 37.444" class="st13"/></g><g id="XMLID_81_"><polygon id="XMLID_82_" points="896.477 41.533 895.795 40.8 899.407 37.444 895.795 34.086 896.477 33.354 900.875 37.444" class="st13"/></g></g></g><line id="XMLID_17_" x1="840.5" x2="840.5" y1="200" y2="410" class="st16"/><line id="XMLID_16_" x1="827.5" x2="827.5" y1="200" y2="410" class="st16"/><g id="XMLID_15_" class="st11"><g id="XMLID_96_"><line id="XMLID_99_" x1="813" x2="826" y1="405.5" y2="405.5" class="st12"/><g id="XMLID_97_"><polygon id="XMLID_98_" points="822.602 409.534 821.92 408.802 825.532 405.445 821.92 402.088 822.602 401.356 827 405.445" class="st13"/></g></g></g><g id="XMLID_12_" class="st11"><g id="XMLID_90_"><line id="XMLID_93_" x1="855" x2="842" y1="405.5" y2="405.5" class="st12"/><g id="XMLID_91_"><polygon id="XMLID_92_" points="845.398 401.355 846.08 402.087 842.468 405.443 846.08 408.801 845.398 409.533 841 405.443" class="st13"/></g></g></g><line id="XMLID_11_" x1="826" x2="841" y1="405.5" y2="405.5" class="st21"/><text id="XMLID_7_" class="st17 st18 st22" transform="matrix(0.8112 0 0 1 825 422.5097656)">x/2</text><line id="XMLID_156_" x1="873.5" x2="873.5" y1="201" y2="379" class="st16"/><line id="XMLID_64_" x1="860.5" x2="860.5" y1="201" y2="379" class="st16"/><g id="XMLID_63_" class="st11"><g id="XMLID_85_"><line id="XMLID_88_" x1="846" x2="859" y1="375.5" y2="375.5" class="st12"/><g id="XMLID_86_"><polygon id="XMLID_87_" points="855.602 379.218 854.92 378.485 858.532 375.129 854.92 371.771 855.602 371.039 860 375.129" class="st13"/></g></g></g><g id="XMLID_20_" class="st11"><g id="XMLID_77_"><line id="XMLID_83_" x1="888" x2="875" y1="375.5" y2="375.5" class="st12"/><g id="XMLID_78_"><polygon id="XMLID_79_" points="878.398 371.038 879.08 371.77 875.468 375.127 879.08 378.484 878.398 379.217 874 375.127" class="st13"/></g></g></g><line id="XMLID_19_" x1="859" x2="874" y1="375.5" y2="375.5" class="st21"/><text id="XMLID_18_" class="st17 st18 st22" transform="matrix(0.8112 0 0 1 859.0001221 393.5097656)">x/2</text><line id="XMLID_28_" x1="915.5" x2="915.5" y1="201" y2="411" class="st16"/><line id="XMLID_25_" x1="902.5" x2="902.5" y1="201" y2="411" class="st16"/><g id="XMLID_13_" class="st11"><g id="XMLID_71_"><line id="XMLID_75_" x1="888" x2="901" y1="406.5" y2="406.5" class="st12"/><g id="XMLID_72_"><polygon id="XMLID_73_" points="897.602 410.534 896.92 409.802 900.532 406.445 896.92 403.088 897.602 402.356 902 406.445" class="st13"/></g></g></g><g id="XMLID_10_" class="st11"><g id="XMLID_54_"><line id="XMLID_69_" x1="930" x2="917" y1="406.5" y2="406.5" class="st12"/><g id="XMLID_55_"><polygon id="XMLID_56_" points="920.398 402.355 921.08 403.087 917.468 406.443 921.08 409.801 920.398 410.533 916 406.443" class="st13"/></g></g></g><line id="XMLID_8_" x1="901" x2="916" y1="406.5" y2="406.5" class="st21"/><text id="XMLID_4_" class="st17 st18 st22" transform="matrix(0.8112 0 0 1 900 423.5097656)">x/2</text><g id="XMLID_24_" class="st11"><g id="XMLID_74_"><line id="XMLID_157_" x1="1036.721" x2="1049.107" y1="217.25" y2="207.025" class="st12"/><g id="XMLID_80_"><polygon id="XMLID_141_" points="1041.88 218.295 1041.94 217.295 1037.017 217.006 1037.666 212.118 1036.673 211.987 1035.885 217.941" class="st13"/></g></g></g><g id="XMLID_22_" class="st11"><g id="XMLID_60_"><line id="XMLID_65_" x1="982.182" x2="1013.201" y1="261.38" y2="235.775" class="st12"/><g id="XMLID_61_"><polygon id="XMLID_62_" points="1013.249 241.039 1012.257 240.908 1012.905 236.02 1007.983 235.73 1008.042 234.731 1014.038 235.085" class="st13"/></g></g></g><text id="XMLID_21_" class="st17 st18 st20" transform="matrix(0.7877 -0.61605 0.61605 0.7877 980.0960693 257.440094)">x</text></g></svg>